# xmcd
#
# Track frame offsets:
#  151
#  76096
#  111895
#
# Disc length: 2026 seconds
#
# Revision: 0
# Processed by: cddbd v1.5PL3 Copyright (c) Steve Scherf et al.
# Submitted via: AltoMP3_Maker 3.0
#
DISCID=1707e803
DTITLE=Sonny Sharrock - Monkey - Pockie - Boo
DYEAR=1900
DGENRE=
TTITLE0=27th day
TTITLE1=Soon
TTITLE2=Monkey-pockie-boo
EXTD=
EXTT0=
EXTT1=
EXTT2=
PLAYORDER=
